<svg version="1.1" id="Layer_1" xmlns="http://www.w3.org/2000/svg" xmlns:xlink="http://www.w3.org/1999/xlink" x="0px" y="0px" viewBox="0 0 2512.5 974.8" style="enable-background:new 0 0 2512.5 974.8;" xml:space="preserve">
 <style type="text/css">
  .st0{fill:url(#SVGID_1_);}
	.st1{fill:url(#SVGID_2_);}
	.st2{fill:url(#SVGID_3_);}
	.st3{fill:#333333;}
	.st4{fill:#BBBDBF;}
	.st5{fill:#F05E27;}
 </style>
 <g>
  <g>
   <linearGradient id="SVGID_1_" gradientUnits="userSpaceOnUse" x1="89.4829" y1="487.42" x2="888.7095" y2="487.42" gradientTransform="matrix(1 0 0 -1 0 974.77)">
    <stop offset="0" style="stop-color:#FBD900">
    </stop>
    <stop offset="3.415208e-02" style="stop-color:#FACE03">
    </stop>
    <stop offset="0.1662" style="stop-color:#F6AA0D">
    </stop>
    <stop offset="0.3049" style="stop-color:#F28B16">
    </stop>
    <stop offset="0.4501" style="stop-color:#EF741D">
    </stop>
    <stop offset="0.6046" style="stop-color:#ED6321">
    </stop>
    <stop offset="0.7748" style="stop-color:#EC5924">
    </stop>
    <stop offset="0.991" style="stop-color:#EC5625">
    </stop>
    <stop offset="1" style="stop-color:#EC5625">
    </stop>
   </linearGradient>
   <path class="st0" d="M870.3,763.3c-14.9-18.9-38.2-35.5-56.8-47.9c-40.2-26.7-76.8-45.8-116.8-60.5L508.3,134.8
			c-1.1-3.3-5.5-16.2-15.1-29.3c-15.3-21-35.8-32.1-59.3-32.1s-44,11.1-59.3,32.1c-9.5,13-14,25.9-15,29.3L90.7,874.5
			c-3.8,10.4,1.6,21.9,12,25.6c2.3,0.8,4.6,1.2,6.8,1.2c6.3,0,12.3-3,16.1-8.2c0.6-0.8,1.2-1.6,1.7-2.5
			c40.2-67.8,97.5-124.6,165.6-164.3C363.1,685.6,443.3,664,525,664c37.1,0,73.7,4.4,109.1,13l0,0c10.7,2.9,21.3,6,31.4,9.4
			l34.4,95.1l0.1,0.2c0.1,0.4,13.9,37.2,23.9,62.3c11.7,29.5,33.1,49,60.2,55.1c5.7,1.3,11.5,1.9,17.3,1.9
			c21.9,0,44.1-8.7,60.8-24.5c17.1-16,26.3-36.5,26.5-59.1C889,798.1,882.2,778.4,870.3,763.3z M272.8,691.8
			c-37,21.5-71,47.7-101.2,77.7l226.1-622.7c0.1-0.2,3.4-9.7,9.8-18.6c6.9-9.5,14.5-14.8,26.4-14.8s19.6,5.4,26.5,14.8
			c6.3,8.8,9.5,17.8,9.8,18.6l178.4,492.4c-40-10.1-81.4-15.4-123.5-15.4C436.3,624,349,647.4,272.8,691.8z M834.8,847.3
			c-11.7,11-27.8,15.9-42,12.7c-14-3.1-25-13.8-31.7-30.8c-9.5-24.1-22.7-59.3-23.5-61.5l-22.4-62.1c25.2,11.5,49.9,25.5,76.3,43
			c16.2,10.7,36.2,24.9,47.5,39.3C849,800.9,856.3,827.2,834.8,847.3z">
   </path>
   <linearGradient id="SVGID_2_" gradientUnits="userSpaceOnUse" x1="127.6" y1="217.57" x2="665.5" y2="217.57" gradientTransform="matrix(1 0 0 -1 0 974.77)">
    <stop offset="0.2768" style="stop-color:#FFFFFF;stop-opacity:0">
    </stop>
    <stop offset="0.3217" style="stop-color:#F7F7F7;stop-opacity:1.045733e-02">
    </stop>
    <stop offset="0.3906" style="stop-color:#E2E2E2;stop-opacity:2.652165e-02">
    </stop>
    <stop offset="0.475" style="stop-color:#BFBFBF;stop-opacity:4.619343e-02">
    </stop>
    <stop offset="0.5716" style="stop-color:#8F8E8E;stop-opacity:6.870829e-02">
    </stop>
    <stop offset="0.6786" style="stop-color:#514F50;stop-opacity:9.363451e-02">
    </stop>
    <stop offset="0.7917" style="stop-color:#080506;stop-opacity:0.12">
    </stop>
    <stop offset="0.905" style="stop-color:#080506;stop-opacity:0.23">
    </stop>
   </linearGradient>
   <path class="st1" d="M525,624c-88.7,0-176,23.5-252.2,67.9c-37,21.5-71,47.7-101.2,77.7l-6,16.3l-38,104.5
			C167.8,822.8,225,766.1,293,726.5c70.1-40.9,150.3-62.5,232-62.5c37.2,0,73.7,4.4,109.1,13l0,0c10.7,2.9,21.3,6,31.4,9.4l-17-47
			C608.5,629.2,567.1,624,525,624z">
   </path>
   <linearGradient id="SVGID_3_" gradientUnits="userSpaceOnUse" x1="696.7" y1="238.87" x2="888.7011" y2="238.87" gradientTransform="matrix(1 0 0 -1 0 974.77)">
    <stop offset="0.1078" style="stop-color:#080506;stop-opacity:0.23">
    </stop>
    <stop offset="0.2389" style="stop-color:#080506;stop-opacity:0.2">
    </stop>
    <stop offset="0.3008" style="stop-color:#171415;stop-opacity:0.1806">
    </stop>
    <stop offset="0.4209" style="stop-color:#3F3D3E;stop-opacity:0.143">
    </stop>
    <stop offset="0.5871" style="stop-color:#807E7F;stop-opacity:9.087294e-02">
    </stop>
    <stop offset="0.7909" style="stop-color:#D8D7D7;stop-opacity:2.700236e-02">
    </stop>
    <stop offset="0.8771" style="stop-color:#FFFFFF;stop-opacity:0">
    </stop>
   </linearGradient>
   <path class="st2" d="M870.3,763.3c-14.9-18.9-38.2-35.5-56.8-47.9c-40.2-26.7-76.8-45.8-116.8-60.5l18.4,50.8l0,0
			c25.2,11.5,49.9,25.5,76.3,43c16.2,10.7,36.2,24.9,47.5,39.3c5.4,6.8,9.9,17.4,9.8,28.9h40C888.8,797.8,882.2,778.3,870.3,763.3z">
   </path>
  </g>
  <g>
   <path class="st3" d="M896.6,389.8h-21.3l-20.6-46.4h-95.6l-20.8,46.4H718L798,213h18.6L896.6,389.8z M807.1,236.2L767,325.7h80
			L807.1,236.2z">
   </path>
   <path class="st3" d="M1051.2,314.8c0,12.9-1.8,24.2-5.3,33.9c-3.5,9.7-8.5,17.8-14.9,24.3s-14.1,11.4-23.1,14.7
			c-8.9,3.3-18.9,4.9-30,4.9c-10.9,0-20.8-1.6-29.7-4.9s-16.6-8.1-23.1-14.5c-6.4-6.4-11.4-14.4-14.9-24s-5.3-20.5-5.3-32.9V214.2
			h19.8V315c0,19.1,4.7,33.7,14.2,43.9c9.4,10.2,22.6,15.3,39.5,15.3c16.2,0,29.1-4.8,38.6-14.5s14.3-24.2,14.3-43.4V214.2h19.8
			L1051.2,314.8L1051.2,314.8z">
   </path>
   <path class="st3" d="M1149.3,389.8h-19.8V232.5h-58.9v-18.3h137.7v18.3h-58.9L1149.3,389.8L1149.3,389.8z">
   </path>
   <path class="st3" d="M1384.3,336.5c-4.4,11-10.5,20.6-18.3,29c-7.9,8.4-17.3,15-28.3,19.9s-23.2,7.4-36.6,7.4s-25.5-2.4-36.5-7.3
			c-11-4.8-20.4-11.4-28.2-19.7s-13.9-17.9-18.2-28.8c-4.3-10.9-6.4-22.5-6.4-34.7s2.2-23.8,6.5-34.7c4.3-10.9,10.4-20.6,18.3-29
			s17.3-15,28.3-19.9s23.2-7.4,36.6-7.4s25.5,2.4,36.5,7.3c11,4.9,20.4,11.4,28.2,19.7c7.9,8.3,13.9,17.9,18.2,28.8
			c4.3,11,6.4,22.5,6.4,34.7C1390.8,313.9,1388.6,325.5,1384.3,336.5z M1365.1,273.9c-3.4-8.9-8.2-16.6-14.4-23.1
			c-6.2-6.5-13.5-11.7-22-15.6c-8.4-3.8-17.7-5.8-27.7-5.8s-19.3,1.9-27.7,5.6c-8.5,3.8-15.7,8.9-21.7,15.4
			c-6,6.5-10.7,14.2-14.2,23c-3.4,8.8-5.1,18.2-5.1,28.2s1.7,19.5,5.1,28.3c3.4,8.9,8.2,16.6,14.4,23.1c6.2,6.5,13.5,11.7,21.9,15.6
			c8.4,3.8,17.7,5.8,27.7,5.8s19.3-1.9,27.7-5.6c8.4-3.8,15.7-8.9,21.7-15.4s10.7-14.2,14.2-22.9c3.4-8.8,5.1-18.2,5.1-28.2
			C1370.2,292.2,1368.5,282.7,1365.1,273.9z">
   </path>
   <path class="st3" d="M1503.3,341.6h-1l-64-93.8v142H1419V214.2h20.1l64,95.8l64-95.8h20.1v175.6h-19.8V247.5L1503.3,341.6z">
   </path>
   <path class="st3" d="M1785.3,389.8H1764l-20.6-46.4h-95.6l-20.8,46.4h-20.3l80-176.8h18.6L1785.3,389.8z M1695.7,236.2l-40.1,89.5
			h80L1695.7,236.2z">
   </path>
   <path class="st3" d="M1847,389.8h-19.8V232.5h-58.9v-18.3H1906v18.3h-59V389.8z">
   </path>
   <path class="st3" d="M1947.5,214.2v175.6h-19.8V214.2H1947.5z">
   </path>
   <path class="st3" d="M2149.9,336.5c-4.4,11-10.5,20.6-18.3,29s-17.3,15-28.3,19.9s-23.2,7.4-36.6,7.4c-13.4,0-25.5-2.4-36.5-7.3
			c-11-4.8-20.4-11.4-28.2-19.7s-13.9-17.9-18.2-28.8c-4.3-10.9-6.4-22.5-6.4-34.7s2.2-23.8,6.5-34.7c4.3-10.9,10.4-20.6,18.3-29
			s17.3-15,28.3-19.9s23.2-7.4,36.6-7.4s25.5,2.4,36.5,7.3c11,4.9,20.4,11.4,28.2,19.7c7.9,8.3,13.9,17.9,18.2,28.8
			c4.3,11,6.4,22.5,6.4,34.7C2156.5,313.9,2154.3,325.5,2149.9,336.5z M2130.8,273.9c-3.4-8.9-8.2-16.6-14.4-23.1
			c-6.2-6.5-13.5-11.7-22-15.6c-8.4-3.8-17.7-5.8-27.7-5.8s-19.3,1.9-27.7,5.6c-8.5,3.8-15.7,8.9-21.7,15.4
			c-6,6.5-10.7,14.2-14.2,23c-3.4,8.8-5.1,18.2-5.1,28.2s1.7,19.5,5.1,28.3c3.4,8.9,8.2,16.6,14.4,23.1c6.2,6.5,13.5,11.7,21.9,15.6
			c8.4,3.8,17.7,5.8,27.7,5.8s19.3-1.9,27.7-5.6c8.4-3.8,15.7-8.9,21.7-15.4s10.7-14.2,14.2-22.9c3.4-8.8,5.1-18.2,5.1-28.2
			C2135.9,292.2,2134.2,282.7,2130.8,273.9z">
   </path>
   <path class="st3" d="M2313.9,214.2h19.3v175.6h-15.8l-113.4-144v144h-19.3V214.2h18.6l110.6,140.7L2313.9,214.2L2313.9,214.2z">
   </path>
   <path class="st3" d="M952.6,478.5h35.6l75.3,176.8H1023l-16-39.3h-74.2l-16.1,39.4h-39.4L952.6,478.5z M993.2,581.9L969.9,525
			l-23.3,56.9H993.2z">
   </path>
   <path class="st3" d="M1075.7,479.8h35.6l82.3,108.1V479.8h38.1v175.6h-32.9l-85-111.6v111.6h-38.1V479.8z">
   </path>
   <path class="st3" d="M1310,586.1l-67.5-106.4h45.2l41.9,70.5l42.6-70.5h43.9l-67.5,105.6v70H1310V586.1z">
   </path>
   <path class="st3" d="M1420.4,479.8h41.4l36.4,118.9l39.4-119.4h33.1l39.4,119.4l36.4-118.9h40.4L1627,656.6h-33.6l-39.6-114.9
			L1514,656.6h-33.6L1420.4,479.8z">
   </path>
   <path class="st3" d="M1699.7,479.8h38.6v69.5h71.2v-69.5h38.6v175.6h-38.6v-70.5h-71.2v70.5h-38.6V479.8z">
   </path>
   <path class="st3" d="M1878.7,479.8h132.2v34.4h-94.1v35.6h82.8v34.4h-82.8V621h95.3v34.4h-133.4V479.8z">
   </path>
   <path class="st3" d="M2036.1,479.8h80.3c22.2,0,39.3,5.9,51.2,17.8c10,10,15.1,23.4,15.1,40.1v0.5c0,14.2-3.5,25.8-10.4,34.7
			s-16,15.5-27.2,19.7l42.9,62.7h-45.2l-37.6-56.2h-0.5h-29.8v56.2h-38.6V479.8H2036.1z M2113.9,565c9.5,0,16.8-2.3,21.9-6.8
			c5.1-4.5,7.7-10.5,7.7-18.1v-0.5c0-8.4-2.7-14.6-8-18.8c-5.4-4.2-12.8-6.3-22.3-6.3h-38.4V565H2113.9z">
   </path>
   <path class="st3" d="M2205.3,479.8h132.2v34.4h-94.1v35.6h82.8v34.4h-82.8V621h95.3v34.4h-133.4V479.8z">
   </path>
  </g>
  <path class="st4" d="M2390.9,183.5c17.9,0,32.1,14.5,32.1,32.8s-14.3,32.8-32.1,32.8c-17.7,0-31.9-14.5-31.9-32.8
		S2373.2,183.5,2390.9,183.5z M2390.9,242.9c14.4,0,25.6-11.7,25.6-26.7s-11.1-26.7-25.6-26.7c-14.3,0-25.3,11.7-25.3,26.7
		C2365.6,231.2,2376.6,242.9,2390.9,242.9z M2379.9,199.2h13c6.4,0,10.7,4,10.7,10.3c0,5.2-3.4,8.3-6.2,9v0.2c0,0,0.4,0.4,1.2,1.9
		l6.5,12.5h-7l-6.3-13.1h-5.5v13h-6.4V199.2z M2391.7,215.3c3.3,0,5.5-2.2,5.5-5.7s-2.2-5.5-5.5-5.5h-5.4v11.2H2391.7z">
  </path>
  <g>
   <path class="st5" d="M1534.8,726.5c21.8,0,33.1,11.3,33.1,11.3l-8,12c0,0-9.5-8.5-23.7-8.5c-19.9,0-30.6,13.8-30.6,30.6
			c0,19.3,13.2,31.9,29.8,31.9c13.4,0,22.3-9.3,22.3-9.3v-10.4H1544v-13.9h28.2v46.9h-13.8v-4.3c0-1.9,0.1-3.8,0.1-3.8h-0.3
			c0,0-9.3,9.5-25.8,9.5c-23.5,0-43.6-18.2-43.6-46.2C1488.9,746.6,1508.3,726.5,1534.8,726.5z">
   </path>
   <path class="st5" d="M1618.1,751.6c19.6,0,35.2,13.9,35.2,33.5c0,19.7-15.7,33.5-35.1,33.5c-19.6,0-35.2-13.8-35.2-33.5
			C1583,765.5,1598.6,751.6,1618.1,751.6z M1618.2,805c10.3,0,18.9-8,18.9-19.9c0-11.8-8.7-19.9-18.9-19.9
			c-10.4,0-19.1,8.1-19.1,19.9C1599.1,797,1607.8,805,1618.2,805z">
   </path>
   <path class="st5" d="M1696.6,728.1h15.9v27.5c0,3.1-0.3,5.4-0.3,5.4h0.3c0,0,5.6-9.3,19.2-9.3c17.3,0,28.3,13.7,28.3,33.5
			c0,20.3-12.4,33.5-29.3,33.5c-13.3,0-19.1-9.5-19.1-9.5h-0.3c0,0,0.3,1.9,0.3,4.4v3.6h-15.1L1696.6,728.1L1696.6,728.1z
			 M1727.9,805.2c8.8,0,16.1-7.1,16.1-19.8c0-12.2-6.5-20.1-15.9-20.1c-8.3,0-16.1,6-16.1,20.2
			C1712,795.4,1717.3,805.2,1727.9,805.2z">
   </path>
   <path class="st5" d="M1801.2,751.6c18.4,0,28.3,13.4,28.3,30.3c0,1.9-0.4,6.1-0.4,6.1H1785c1,11.2,9.7,16.9,19.2,16.9
			c10.3,0,18.4-7,18.4-7l6.1,11.4c0,0-9.8,9.2-25.7,9.2c-21.2,0-34.4-15.3-34.4-33.5C1768.7,765.4,1782.1,751.6,1801.2,751.6z
			 M1813.5,777.2c-0.3-8.7-5.6-13.3-12.7-13.3c-8.2,0-13.8,5-15.3,13.3H1813.5z">
   </path>
   <path class="st5" d="M1897.4,829.9c9.8,0,18.1-4.1,18.1-15.5v-3.8c0-1.5,0.3-3.4,0.3-3.4h-0.3c-3.8,5.6-9.3,8.7-17.8,8.7
			c-18.3,0-28.7-14.8-28.7-32.4c0-17.6,9.9-31.9,28.3-31.9c13.9,0,18.9,8.1,18.9,8.1h0.4c0,0-0.1-0.7-0.1-1.8V753h14.9v60.1
			c0,22-17.1,30.2-33.7,30.2c-8,0-16.6-2.3-22.7-5.5l4.8-12.2C1879.7,825.7,1887.7,829.9,1897.4,829.9z M1915.8,783.6
			c0-14.6-7.2-18.4-15.8-18.4c-9.7,0-15,7-15,17.8c0,11.2,5.8,19.4,16.1,19.4C1908.7,802.4,1915.8,798,1915.8,783.6z">
   </path>
   <path class="st5" d="M1948.9,753.1h15.3v11c0,2.4-0.3,4.5-0.3,4.5h0.3c2.9-9.1,10.5-16.4,20.3-16.4c1.5,0,2.9,0.3,2.9,0.3v15.7
			c0,0-1.6-0.3-3.8-0.3c-6.8,0-14.4,3.9-17.4,13.4c-1,3.1-1.4,6.6-1.4,10.4V817h-15.9V753.1z">
   </path>
   <path class="st5" d="M2026.2,751.6c18.4,0,28.3,13.4,28.3,30.3c0,1.9-0.4,6.1-0.4,6.1H2010c1,11.2,9.7,16.9,19.2,16.9
			c10.3,0,18.4-7,18.4-7l6.1,11.4c0,0-9.8,9.2-25.7,9.2c-21.2,0-34.4-15.3-34.4-33.5C1993.7,765.4,2007.1,751.6,2026.2,751.6z
			 M2038.5,777.2c-0.3-8.7-5.6-13.3-12.7-13.3c-8.2,0-13.8,5-15.3,13.3H2038.5z">
   </path>
   <path class="st5" d="M2100.2,777h2.1v-0.9c0-8.4-5.3-11.3-12.3-11.3c-9.2,0-17.6,6.1-17.6,6.1l-6-11.4c0,0,9.9-7.9,25.1-7.9
			c16.8,0,26.6,9.3,26.6,25.5v40h-14.7v-5.3c0-2.5,0.3-4.5,0.3-4.5h-0.3c0.1,0-4.9,11.3-19.4,11.3c-11.4,0-21.7-7.1-21.7-19.9
			C2062.3,778.3,2089.8,777,2100.2,777z M2088,806.2c8.4,0,14.4-9,14.4-16.8v-1.5h-2.8c-8.1,0-21.3,1.1-21.3,10
			C2078.3,802.2,2081.5,806.2,2088,806.2z">
   </path>
   <path class="st5" d="M2137,766.8h-8.3v-12.7h8.7v-18.4h15.5v18.4h14.5v12.7H2153v24.8c0,10.5,8.3,12,12.7,12
			c1.8,0,2.9-0.3,2.9-0.3v13.9c0,0-1.9,0.4-4.9,0.4c-8.9,0-26.6-2.6-26.6-24.1L2137,766.8L2137,766.8z">
   </path>
   <path class="st5" d="M2180.9,801.2h15.9v15.9h-15.9V801.2z">
   </path>
  </g>
 </g>
</svg>